<svg width="24" height="24" viewBox="0 0 23 23" fill="none" xmlns="http://www.w3.org/2000/svg">
<path fill-rule="evenodd" clip-rule="evenodd" d="M13.5644 14.3444C13.7951 14.5907 13.921 14.917 13.9155 15.2544C13.91 15.5918 13.7735 15.9138 13.5349 16.1524C13.2963 16.391 12.9742 16.5275 12.6369 16.533C12.2995 16.5385 11.9731 16.4126 11.7269 16.1819L6.46438 10.9182C6.22088 10.6744 6.08411 10.344 6.08411 9.99941C6.08411 9.65487 6.22088 9.32442 6.46438 9.08066L11.7269 3.81816C11.9731 3.58746 12.2995 3.46156 12.6369 3.46706C12.9742 3.47256 13.2963 3.60904 13.5349 3.84765C13.7735 4.08626 13.91 4.40829 13.9155 4.74569C13.921 5.08309 13.7951 5.4094 13.5644 5.65566L9.22063 9.99941L13.5644 14.3444Z" fill="currentColor"/>
</svg>