<svg width="24" height="24" viewBox="0 0 24 24" fill="none" xmlns="http://www.w3.org/2000/svg">
<path fill-rule="evenodd" clip-rule="evenodd" d="M7.72182 6.78669C7.44498 6.49117 7.2939 6.0996 7.3005 5.69472C7.3071 5.28984 7.47088 4.9034 7.75721 4.61707C8.04354 4.33074 8.42998 4.16697 8.83486 4.16036C9.23973 4.15376 9.63131 4.30485 9.92682 4.58169L16.2433 10.8982C16.5355 11.1907 16.6997 11.5872 16.6997 12.0007C16.6997 12.4141 16.5355 12.8107 16.2433 13.1032L9.92832 19.4182C9.63281 19.695 9.24123 19.8461 8.83636 19.8395C8.43148 19.8329 8.04504 19.6691 7.75871 19.3828C7.47238 19.0965 7.3086 18.71 7.302 18.3052C7.2954 17.9003 7.44648 17.5087 7.72332 17.2132L12.9358 12.0007L7.72182 6.78669Z" fill="currentColor"/>
</svg>
