<svg width="24" height="24" viewBox="0 0 23 23" fill="none" xmlns="http://www.w3.org/2000/svg">
  <path fill-rule="evenodd" clip-rule="evenodd" d="M16.8406 9.08252L15.3706 12.0226C16.0698 12.1087 16.6944 12.4354 17.1593 12.9173L18.6293 9.97724C17.9302 9.8911 17.3055 9.56441 16.8406 9.08252ZM13.7066 12.2923C13.0888 12.5879 12.588 13.0887 12.2923 13.7065L10.2934 11.7075C10.9111 11.4119 11.412 10.9111 11.7076 10.2933L13.7066 12.2923ZM6.84063 11.0825L5.37061 14.0226C6.06976 14.1087 6.69444 14.4354 7.15931 14.9173L8.62934 11.9772C7.93019 11.8911 7.30551 11.5644 6.84063 11.0825Z" fill="currentColor"/>
  <path fill-rule="evenodd" clip-rule="evenodd" d="M20 7C20 7.55228 19.5523 8 19 8C18.4477 8 18 7.55228 18 7C18 6.44772 18.4477 6 19 6C19.5523 6 20 6.44772 20 7ZM22 7C22 8.65685 20.6569 10 19 10C17.3431 10 16 8.65685 16 7C16 5.34315 17.3431 4 19 4C20.6569 4 22 5.34315 22 7ZM10 9C10 9.55228 9.55228 10 9 10C8.44772 10 8 9.55228 8 9C8 8.44772 8.44772 8 9 8C9.55228 8 10 8.44772 10 9ZM12 9C12 10.6569 10.6569 12 9 12C7.34315 12 6 10.6569 6 9C6 7.34315 7.34315 6 9 6C10.6569 6 12 7.34315 12 9ZM6 17C6 17.5523 5.55228 18 5 18C4.44772 18 4 17.5523 4 17C4 16.4477 4.44772 16 5 16C5.55228 16 6 16.4477 6 17ZM8 17C8 18.6569 6.65685 20 5 20C3.34315 20 2 18.6569 2 17C2 15.3431 3.34315 14 5 14C6.65685 14 8 15.3431 8 17ZM15 16C15.5523 16 16 15.5523 16 15C16 14.4477 15.5523 14 15 14C14.4477 14 14 14.4477 14 15C14 15.5523 14.4477 16 15 16ZM15 18C16.6569 18 18 16.6569 18 15C18 13.3431 16.6569 12 15 12C13.3431 12 12 13.3431 12 15C12 16.6569 13.3431 18 15 18Z" fill="currentColor"/>
</svg>
