<svg xmlns="http://www.w3.org/2000/svg" width="24" height="24" viewBox="-1 -1 16 16" fill="none">
  <g clip-path="url(#clip0_1222_30262)">
    <path d="M3.48048 10.5327C4.11084 10.5327 4.62184 10.0217 4.62184 9.39137C4.62184 8.76101 4.11084 8.25 3.48048 8.25C2.85012 8.25 2.33911 8.76101 2.33911 9.39137C2.33911 10.0217 2.85012 10.5327 3.48048 10.5327Z" stroke="currentColor" stroke-linecap="round" stroke-linejoin="round"/>
    <path d="M1.42505 13.4787C1.42868 13.1307 1.52046 12.7893 1.6918 12.4864C2.05287 11.8481 2.74633 11.4428 3.47951 11.4412C4.21269 11.4428 4.90615 11.8481 5.26722 12.4864C5.43856 12.7893 5.53033 13.1307 5.53397 13.4787" stroke="currentColor" stroke-linecap="round" stroke-linejoin="round"/>
    <path d="M10.5254 10.5327C11.1558 10.5327 11.6668 10.0217 11.6668 9.39137C11.6668 8.76101 11.1558 8.25 10.5254 8.25C9.89504 8.25 9.38403 8.76101 9.38403 9.39137C9.38403 10.0217 9.89504 10.5327 10.5254 10.5327Z" stroke="currentColor" stroke-linecap="round" stroke-linejoin="round"/>
    <path d="M8.46997 13.4787C8.47361 13.1307 8.56538 12.7893 8.73672 12.4864C9.09779 11.8481 9.79125 11.4428 10.5244 11.4412C11.2576 11.4428 11.9511 11.8481 12.3121 12.4864C12.4835 12.7893 12.5753 13.1307 12.5789 13.4787" stroke="currentColor" stroke-linecap="round" stroke-linejoin="round"/>
    <path d="M6.999 4.04708C7.58741 4.04708 8.06441 3.57008 8.06441 2.98167C8.06441 2.39326 7.58741 1.91626 6.999 1.91626C6.41059 1.91626 5.93359 2.39326 5.93359 2.98167C5.93359 3.57008 6.41059 4.04708 6.999 4.04708Z" stroke="currentColor" stroke-linecap="round" stroke-linejoin="round"/>
    <path d="M5.00781 6.71826C5.01134 6.38085 5.10032 6.04985 5.26645 5.75615C5.61655 5.13724 6.28893 4.74422 6.99982 4.74268C7.71071 4.74422 8.38309 5.13724 8.73319 5.75615C8.89932 6.04984 8.98831 6.38085 8.99183 6.71826" stroke="currentColor" stroke-linecap="round" stroke-linejoin="round"/>
    <path d="M11.7818 0.544922H2.21823C1.82156 0.544922 1.5 0.866486 1.5 1.26315V6C1.5 6.39667 1.82156 6.71823 2.21823 6.71823H11.7818C12.1784 6.71823 12.5 6.39667 12.5 6V1.26315C12.5 0.866486 12.1784 0.544922 11.7818 0.544922Z" stroke="currentColor" stroke-linecap="round" stroke-linejoin="round"/>
  </g>
  <defs>
    <clipPath id="clip0_1222_30262">
      <rect width="14" height="14" fill="white"/>
    </clipPath>
  </defs>
</svg>